<?xml version="1.0" standalone="no"?>
<!DOCTYPE svg PUBLIC "-//W3C//DTD SVG 20010904//EN"
 "http://www.w3.org/TR/2001/REC-SVG-20010904/DTD/svg10.dtd">
<svg version="1.0" xmlns="http://www.w3.org/2000/svg"
 width="512.000000pt" height="512.000000pt" viewBox="0 0 512.000000 512.000000"
 preserveAspectRatio="xMidYMid meet">
<metadata>
Created by potrace 1.14, written by Peter Selinger 2001-2017
</metadata>
<g transform="translate(0.000000,512.000000) scale(0.100000,-0.100000)"
fill="#000000" stroke="none">
<path d="M2519 5093 c-1 -16 -2 -39 -4 -53 -10 -100 -18 -269 -17 -397 l1
-153 -47 -1 c-26 0 -54 -2 -63 -4 -8 -1 -42 -6 -75 -9 -32 -4 -67 -9 -76 -12
-13 -4 -27 16 -62 84 -25 48 -57 103 -70 121 l-25 33 6 -53 c4 -30 6 -74 6
-99 -1 -111 -3 -120 -18 -120 -29 0 -252 -79 -349 -124 -643 -299 -1092 -925
-1162 -1622 -16 -162 -8 -440 16 -549 5 -22 12 -56 15 -75 30 -180 146 -473
253 -640 32 -51 34 -56 22 -90 -6 -19 -32 -91 -57 -160 -25 -69 -46 -133 -48
-142 -2 -9 -9 -27 -16 -40 -7 -13 -12 -25 -11 -28 1 -3 -5 -27 -13 -55 -14
-49 -17 -65 -35 -170 -5 -27 -8 -125 -7 -217 l1 -168 35 -6 c61 -12 242 3 316
26 156 49 284 131 431 275 l82 81 118 -59 c205 -103 410 -167 649 -203 86 -13
411 -12 510 1 171 23 427 89 464 119 8 6 16 10 17 9 11 -7 163 62 279 127 72
40 228 151 300 213 249 214 426 460 565 782 41 95 106 331 116 419 3 28 7 53
9 56 7 11 19 178 19 265 0 244 -30 430 -105 660 -66 198 -206 460 -324 604
-240 292 -508 494 -823 620 l-117 48 -62 124 c-71 142 -134 298 -195 482 l-42
127 -203 0 -203 0 -1 -27z"/>
</g>
</svg>
